<svg id="Capa_1" data-name="Capa 1" xmlns="http://www.w3.org/2000/svg" viewBox="0 0 352 186"><defs><style>.cls-1{fill:#565656;}.cls-2{fill:#c1ae90;}.cls-3{fill:#fff;}</style></defs><title>JM LOGO</title><path class="cls-1" d="M106.59,9H233.34a15.21,15.21,0,0,1,15.21,15.21V80.15a15.21,15.21,0,0,1-15.21,15.21H106.59a0,0,0,0,1,0,0V9A0,0,0,0,1,106.59,9Z"/><path d="M120.91,167.85a3.35,3.35,0,0,0-1.23-1.88,3.7,3.7,0,0,0-2.13-.55h-1.91a.77.77,0,0,0-.4.08.34.34,0,0,0-.12.29V179h2.43a3.1,3.1,0,0,0,2.07-.71A4.59,4.59,0,0,0,120.9,176a18.07,18.07,0,0,0,.43-4.44A12.66,12.66,0,0,0,120.91,167.85Zm-1.62,7.4a4,4,0,0,1-.69,1.81,1.37,1.37,0,0,1-1,.45h-.9V166.85h.9a1.59,1.59,0,0,1,1.12.39,2.54,2.54,0,0,1,.64,1.37,13.71,13.71,0,0,1,.22,2.75A20.18,20.18,0,0,1,119.29,175.25Z"/><path d="M122.73,165.61a1.21,1.21,0,0,0-.08.52V179h1a1.13,1.13,0,0,0,.47-.07.29.29,0,0,0,.07-.23V165.42c-.58,0-1,0-1.15,0A.45.45,0,0,0,122.73,165.61Z"/><path d="M130.28,172.27l-2.11-2.39a6.12,6.12,0,0,1-.68-1,2,2,0,0,1-.22-.92,1.13,1.13,0,0,1,.52-1,2.46,2.46,0,0,1,1.39-.35,4.21,4.21,0,0,1,1.15.15,1.91,1.91,0,0,1,.75.32,1.29,1.29,0,0,0,.39-.9c0-.29-.21-.53-.62-.7a5.17,5.17,0,0,0-1.93-.27,3.61,3.61,0,0,0-2.45.76,2.52,2.52,0,0,0-.89,2,3.34,3.34,0,0,0,.29,1.35,6.25,6.25,0,0,0,.94,1.45l1.94,2.27a5.83,5.83,0,0,1,.89,1.31,2.94,2.94,0,0,1,.25,1.25c0,1.32-.63,2-1.92,2a2.9,2.9,0,0,1-2-.68,2,2,0,0,0-.3.56,1.8,1.8,0,0,0-.1.57c0,.29.22.56.67.79a4,4,0,0,0,1.89.35,3.2,3.2,0,0,0,2.65-1,4.12,4.12,0,0,0,.8-2.65,4.61,4.61,0,0,0-.28-1.67A5.66,5.66,0,0,0,130.28,172.27Z"/><path d="M133,165.53a.45.45,0,0,0-.05.2V179h4.58a.29.29,0,0,0,.22-.08c0-.05.07-.19.08-.43s0-.53,0-.91h-3.34v-5.26h2.64a.22.22,0,0,0,.21-.11,1.2,1.2,0,0,0,.07-.45c0-.24,0-.53,0-.88h-2.93v-4.06h3.12c.11,0,.18,0,.22-.08a1.1,1.1,0,0,0,.07-.44v-.89h-4.65A.28.28,0,0,0,133,165.53Z"/><path d="M140.45,164q.11,0,.3-.24a2.72,2.72,0,0,1,.39-.38.78.78,0,0,1,.46-.14.56.56,0,0,1,.35.1,2.17,2.17,0,0,1,.33.31,1.71,1.71,0,0,0,.43.39,1.11,1.11,0,0,0,.6.13,1.9,1.9,0,0,0,1-.27,3.56,3.56,0,0,0,.75-.59,2.22,2.22,0,0,0,.36-.49l-.09-.28a2.14,2.14,0,0,0-.2-.4.31.31,0,0,0-.27-.2c-.06,0-.16.08-.28.24a1.93,1.93,0,0,1-.39.37,1,1,0,0,1-.59.15.75.75,0,0,1-.43-.12,1.92,1.92,0,0,1-.38-.35,4.6,4.6,0,0,0-.41-.35.91.91,0,0,0-.47-.11,2.11,2.11,0,0,0-1.15.35,3.17,3.17,0,0,0-1,1.1,1.55,1.55,0,0,0,.12.25,2.2,2.2,0,0,0,.28.36A.49.49,0,0,0,140.45,164Z"/><path d="M144.53,165.49a.3.3,0,0,0-.08.24v4.58c0,.71,0,1.73.05,3.06s.08,2.24.15,2.74v.06c-.23-.68-.38-1.1-.43-1.26-.79-2.38-1.27-3.8-1.44-4.25l-2.19-5.24H139.4a.28.28,0,0,0-.31.31V179h1a1,1,0,0,0,.45-.07.29.29,0,0,0,.07-.23V174c0-.73,0-1.74-.06-3s-.08-2.24-.14-2.79q1.38,4.29,1.85,5.53l2.23,5.34h1.17a.28.28,0,0,0,.32-.31V165.42h-1A1.2,1.2,0,0,0,144.53,165.49Z"/><path d="M151.68,165.42a3.73,3.73,0,0,0-.74-.06c-.35,0-.54.09-.58.27L146.88,179a9.44,9.44,0,0,0,1,.06,1.55,1.55,0,0,0,.56-.07.45.45,0,0,0,.18-.24l.76-3.19h3.38l.81,3.46c.27,0,.58,0,.93,0a1.38,1.38,0,0,0,.58-.08.2.2,0,0,0,.1-.25Zm-2,8.71.66-2.79a37.15,37.15,0,0,0,.7-3.75,25.39,25.39,0,0,0,.68,3.75l.66,2.79Z"/><path d="M185.32,171.36v1h1.46v4.83a.92.92,0,0,1-.4.33,1.6,1.6,0,0,1-.77.16,1.63,1.63,0,0,1-1.12-.38,2.73,2.73,0,0,1-.66-1.52,17.39,17.39,0,0,1-.24-3.36,15,15,0,0,1,.3-3.4,3.1,3.1,0,0,1,.89-1.74,2.43,2.43,0,0,1,1.63-.51,3,3,0,0,1,.87.12,2.28,2.28,0,0,1,.68.34,2.84,2.84,0,0,0,.22-1c0-.26-.2-.49-.58-.69a3.22,3.22,0,0,0-1.5-.3,4,4,0,0,0-2.29.6,3.85,3.85,0,0,0-1.39,2.18,16,16,0,0,0-.5,4.52,18,18,0,0,0,.37,4.14,3.38,3.38,0,0,0,1.15,2,3.61,3.61,0,0,0,2.13.55,4,4,0,0,0,2.66-.87v-7.28h-2.54C185.45,171.05,185.32,171.15,185.32,171.36Z"/><path d="M205.39,165.53a.64.64,0,0,0,0,.2V179h1.26c.13,0,.21,0,.24-.11a.53.53,0,0,0,0-.2v-6.37h2.64a.21.21,0,0,0,.21-.11,1,1,0,0,0,.07-.45c0-.24,0-.53,0-.88h-2.93v-4.13H210a.26.26,0,0,0,.21-.08.86.86,0,0,0,.07-.4c0-.21,0-.5,0-.86h-4.66A.28.28,0,0,0,205.39,165.53Z"/><path d="M211.47,165.61a1.21,1.21,0,0,0-.08.52V179h1.05a1.13,1.13,0,0,0,.47-.07.29.29,0,0,0,.08-.23V165.42c-.59,0-1,0-1.16,0A.45.45,0,0,0,211.47,165.61Z"/><path d="M217.27,167.21a2,2,0,0,1,1.27-.45,2,2,0,0,1,1.26.48,1.8,1.8,0,0,0,.25-1,.92.92,0,0,0-.42-.76,2.52,2.52,0,0,0-1.4-.31,3.24,3.24,0,0,0-1.88.57A4.23,4.23,0,0,0,215,168a15.39,15.39,0,0,0-.57,4.75,15.85,15.85,0,0,0,.4,4.11,3.19,3.19,0,0,0,1.09,1.86,3,3,0,0,0,1.73.46,3.24,3.24,0,0,0,1.73-.41,1.15,1.15,0,0,0,.68-1,2.39,2.39,0,0,0-.23-1,2.39,2.39,0,0,1-.78.44,2.88,2.88,0,0,1-1,.18,1.52,1.52,0,0,1-1.05-.38,2.68,2.68,0,0,1-.66-1.44,14,14,0,0,1-.24-3,16,16,0,0,1,.34-3.73A3.49,3.49,0,0,1,217.27,167.21Z"/><path d="M160.61,166a3.76,3.76,0,0,0-2.14-.55h-1.9a.79.79,0,0,0-.41.08.34.34,0,0,0-.12.29V179h2.43a3.12,3.12,0,0,0,2.08-.71,4.58,4.58,0,0,0,1.27-2.35,18,18,0,0,0,.44-4.44,12.66,12.66,0,0,0-.42-3.66A3.45,3.45,0,0,0,160.61,166Zm-.39,9.28a4,4,0,0,1-.7,1.81,1.35,1.35,0,0,1-1,.45h-.89V166.85h.89a1.62,1.62,0,0,1,1.13.39,2.61,2.61,0,0,1,.63,1.37,13,13,0,0,1,.22,2.75A21.2,21.2,0,0,1,160.22,175.25Z"/><path d="M169.05,165.85a3,3,0,0,0-2-.63,3.25,3.25,0,0,0-2.11.66,4,4,0,0,0-1.22,2.18,16.9,16.9,0,0,0-.4,4.07,20.58,20.58,0,0,0,.35,4.32,3.82,3.82,0,0,0,1.1,2.14,3.17,3.17,0,0,0,2.07.61,3.09,3.09,0,0,0,2.1-.68,4.13,4.13,0,0,0,1.17-2.23,18.7,18.7,0,0,0,.38-4.21,19.11,19.11,0,0,0-.34-4.12A3.89,3.89,0,0,0,169.05,165.85Zm-.45,9.47a4,4,0,0,1-.6,1.73,1.33,1.33,0,0,1-1.12.54,1.31,1.31,0,0,1-1.09-.5,3.58,3.58,0,0,1-.55-1.61,20.76,20.76,0,0,1-.17-3,22.5,22.5,0,0,1,.2-3.35,4.06,4.06,0,0,1,.61-1.78,1.33,1.33,0,0,1,1.11-.56,1.29,1.29,0,0,1,1.09.51,3.58,3.58,0,0,1,.55,1.63,25.32,25.32,0,0,1,.15,3.15A22.38,22.38,0,0,1,168.6,175.32Z"/><path d="M176,173.07c1.13-.65,1.69-1.92,1.69-3.83a4.16,4.16,0,0,0-.86-2.91,3.58,3.58,0,0,0-2.71-.91h-1.92a.26.26,0,0,0-.25.11.49.49,0,0,0-.06.2V179h1a1,1,0,0,0,.45-.07.29.29,0,0,0,.07-.23v-5.21h.7a2.07,2.07,0,0,0,.39,0,8.74,8.74,0,0,1,1,2.05,13.09,13.09,0,0,1,.61,3.49l.91,0a1.69,1.69,0,0,0,.66-.08.33.33,0,0,0,.14-.31,12,12,0,0,0-.67-3.38A8.82,8.82,0,0,0,176,173.07Zm-.44-1.7a1.41,1.41,0,0,1-1.27.67h-.85v-5.25h1a1.28,1.28,0,0,1,1.19.61,3.51,3.51,0,0,1,.36,1.78A4.45,4.45,0,0,1,175.58,171.37Z"/><path d="M193.81,173.07c1.12-.65,1.68-1.92,1.68-3.83a4.12,4.12,0,0,0-.86-2.91,3.58,3.58,0,0,0-2.71-.91H190a.26.26,0,0,0-.25.11.49.49,0,0,0-.06.2V179h1a1.07,1.07,0,0,0,.46-.07.33.33,0,0,0,.06-.23v-5.21h.7a2.07,2.07,0,0,0,.39,0,8.74,8.74,0,0,1,1,2.05,13.09,13.09,0,0,1,.61,3.49l.91,0a1.66,1.66,0,0,0,.66-.08.33.33,0,0,0,.14-.31,11.62,11.62,0,0,0-.67-3.38A8.83,8.83,0,0,0,193.81,173.07Zm-.45-1.7a1.39,1.39,0,0,1-1.26.67h-.86v-5.25h1a1.29,1.29,0,0,1,1.19.61,3.51,3.51,0,0,1,.36,1.78A4.44,4.44,0,0,1,193.36,171.37Z"/><path d="M200.21,165.36c-.35,0-.54.09-.58.27L196.16,179a9.12,9.12,0,0,0,1,.06,1.48,1.48,0,0,0,.55-.07.41.41,0,0,0,.18-.24l.76-3.19H202l.81,3.46c.28,0,.59,0,.94,0a1.38,1.38,0,0,0,.58-.08.22.22,0,0,0,.1-.25L201,165.42A3.73,3.73,0,0,0,200.21,165.36Zm1.44,8.77H199l.66-2.79a34.54,34.54,0,0,0,.7-3.75,28.37,28.37,0,0,0,.68,3.75Z"/><path d="M199.09,164.06a.35.35,0,0,0,.29.19,14.19,14.19,0,0,0,1.49-1,11.4,11.4,0,0,0,1.23-1,3.59,3.59,0,0,0-.27-.8c-.14-.26-.28-.38-.45-.38a4.35,4.35,0,0,0-1.06.78,15.9,15.9,0,0,0-1.54,1.49s0,.13.09.27A1.81,1.81,0,0,0,199.09,164.06Z"/><path d="M227.63,168a3.76,3.76,0,0,0-1.08-2.11,3,3,0,0,0-2-.63,3.26,3.26,0,0,0-2.12.66,4,4,0,0,0-1.21,2.18,16.4,16.4,0,0,0-.4,4.07,20.58,20.58,0,0,0,.35,4.32,3.81,3.81,0,0,0,1.09,2.14,3.17,3.17,0,0,0,2.07.61,3.09,3.09,0,0,0,2.1-.68,4.2,4.2,0,0,0,1.18-2.23,18.79,18.79,0,0,0,.37-4.21A19.11,19.11,0,0,0,227.63,168Zm-1.53,7.36a4,4,0,0,1-.59,1.73,1.34,1.34,0,0,1-1.13.54,1.29,1.29,0,0,1-1.08-.5,3.46,3.46,0,0,1-.56-1.61,20.76,20.76,0,0,1-.17-3,22.5,22.5,0,0,1,.2-3.35,4.06,4.06,0,0,1,.61-1.78,1.33,1.33,0,0,1,1.12-.56,1.27,1.27,0,0,1,1.08.51,3.47,3.47,0,0,1,.55,1.63,25.32,25.32,0,0,1,.15,3.15A22.38,22.38,0,0,1,226.1,175.32Z"/><path class="cls-2" d="M325.25,143.45c.35-.11.7-.23,1.05-.37a5.53,5.53,0,0,0-2.1.63C324.55,143.64,324.9,143.55,325.25,143.45Z"/><path class="cls-2" d="M310.69,140.74h0Z"/><path class="cls-2" d="M309.31,131.44a3,3,0,0,0-1.39-.84c-.58-.18-1.11-.32-1.6-.42s-1.33-.27-2.1-.39a10.09,10.09,0,0,0-2.33-.11,8.48,8.48,0,0,0-2.23.44,3.81,3.81,0,0,0-1.73,1.21,2.26,2.26,0,0,0-.69,2.15,3.37,3.37,0,0,0,1.29,1.71,7.55,7.55,0,0,0,2.28,1.1,6.92,6.92,0,0,0,2.26.34,6.66,6.66,0,0,0,2.3-.58,2.82,2.82,0,0,0,1.63-1.73,1.18,1.18,0,0,0,.1-.44v-.4l.22.16a2.73,2.73,0,0,0,.73.39,1.14,1.14,0,0,0,.79,0,1.4,1.4,0,0,0,1.05-1.16A1.34,1.34,0,0,0,309.31,131.44Zm-4.2,2.52a2.38,2.38,0,0,1-1.28.57,6.3,6.3,0,0,1-1.73.08,4.29,4.29,0,0,1-1.6-.45,1.56,1.56,0,0,1-.9-1V133c-.06-.1.06-.19.4-.26a10.16,10.16,0,0,1,1.26-.16c.5,0,1-.05,1.55-.05h1.25a4.64,4.64,0,0,1,1.16.57C305.57,133.36,305.53,133.64,305.11,134Z"/><path class="cls-2" d="M310.46,140.67s-.08,0-.14,0c.12,0,.26,0,.37,0C310.6,140.72,310.56,140.67,310.46,140.67Z"/><path class="cls-2" d="M313.08,136.63a2.09,2.09,0,0,0,1.13-.34q.56-.34,1-.6c.6-.39,1.21-.75,1.84-1.08s1.26-.67,1.88-1l2.84-1.58a1.31,1.31,0,0,0,.68-.65,1.87,1.87,0,0,0,.18-.92,1.35,1.35,0,0,0-.31-.81,1.46,1.46,0,0,0-.92-.45,1.71,1.71,0,0,0-1.21.29c-.41.26-.78.48-1.1.65l-3.72,2.1-2.83,1.58a1.57,1.57,0,0,0-.69.73,1.85,1.85,0,0,0-.15.94,1.26,1.26,0,0,0,1.36,1.16Z"/><path class="cls-2" d="M346.38,140.93a1.41,1.41,0,0,0-1.23-.26c-.44.1-.85.21-1.23.31a20.75,20.75,0,0,0-2.18.79l-2.28.94c-.77.32-1.55.6-2.33.84a14.54,14.54,0,0,1-2.34.53,2.48,2.48,0,0,0,.37-1.4c0-.43-.4-.84-1.1-1.23a4.4,4.4,0,0,0-2.1-.31,2.08,2.08,0,0,0-.36-.29,3.05,3.05,0,0,0-.48-.23,12.07,12.07,0,0,0-2.46-.5,11.64,11.64,0,0,0-2.57,0,10.22,10.22,0,0,0-2,.55l-.24.13a4.7,4.7,0,0,0-.5,0,24.23,24.23,0,0,0-3.59.81l-3.49,1.13a27.46,27.46,0,0,1-2.67.79,3.15,3.15,0,0,1-.76.13,6,6,0,0,0-.92.13c.07-.35.12-.7.16-1a2.79,2.79,0,0,0-.08-1,1.44,1.44,0,0,0-.5-.73,1.84,1.84,0,0,0-.78-.26h0c-.11,0-.25,0-.37,0a2.34,2.34,0,0,0-.38,0,29.36,29.36,0,0,0-4.43.64,37.85,37.85,0,0,0-4.33,1.23l-1.73.64a3.82,3.82,0,0,0-.47-1.07,2.58,2.58,0,0,0-.84-.8,4.35,4.35,0,0,0-1.47-.67,2.65,2.65,0,0,0-1.63,0s-.05,0-.08.06-.14-.07-.23-.06a28.33,28.33,0,0,0-3.64.65c-1.21.3-2.43.59-3.65.87q-2.52.57-5.06,1.1a42.47,42.47,0,0,1-5.11.73h-.76c-.41,0-.84,0-1.32-.05a9.08,9.08,0,0,1-1.33-.18,1.77,1.77,0,0,1-.84-.34q.63.11,1.47.18a8.77,8.77,0,0,0,1.62,0,5,5,0,0,0,1.42-.34,1.81,1.81,0,0,0,.94-.89,1.57,1.57,0,0,0,.08-1.39,1.94,1.94,0,0,0-1-.87,5.19,5.19,0,0,0-1.73-.37,13.2,13.2,0,0,0-2,.06,10.05,10.05,0,0,0-1.81.34,2.63,2.63,0,0,0-.92.47,1.65,1.65,0,0,0-.79-.13,15.17,15.17,0,0,0-3.7.68c-1.2.39-2.38.82-3.53,1.31-1.37.53-2.73,1.1-4.1,1.73s-2.72,1.24-4.08,1.81-2.74,1.11-4.12,1.6a31.42,31.42,0,0,1-4.22,1.16,3.62,3.62,0,0,1,.29-1.05,6.65,6.65,0,0,1,.57-1.13c.23-.37.46-.72.68-1.05s.42-.6.55-.81c1-1.51,1.94-3,3-4.41s2.27-3.1,3.44-4.59,2.31-3,3.43-4.59l1.29-1.7a15.11,15.11,0,0,0,1.41-2.25,6.75,6.75,0,0,0,.74-2.31,2.13,2.13,0,0,0-.76-1.92,2,2,0,0,0-1.29-.55,8.82,8.82,0,0,0-1.44.08,10.69,10.69,0,0,0-3.33,1.1c-1.07.56-2.11,1.14-3.12,1.73-1.78,1.09-3.5,2.23-5.16,3.44s-3.34,2.42-5,3.64-3.4,2.58-5,3.86l-5,3.85c-1,.74-2,1.57-3.07,2.49A20.65,20.65,0,0,1,225.4,145c.35-.49.71-1,1.08-1.42s.72-.9,1.07-1.36c.7-.94,1.42-1.88,2.18-2.81s1.49-1.86,2.23-2.8q2.25-2.77,4.48-5.51t4.33-5.66l1.26-1.68a17.52,17.52,0,0,0,1.41-2.23,7.91,7.91,0,0,0,.84-2.33,2.44,2.44,0,0,0-.52-2,1.92,1.92,0,0,0-1-.68,4.35,4.35,0,0,0-1.26-.13,10.13,10.13,0,0,0-2.49.45,45.46,45.46,0,0,0-8.94,3.38q-4.32,2.18-8.47,4.53a181.35,181.35,0,0,0-15.78,10q-3.51,2.52-6.92,5.25a54.27,54.27,0,0,0-6.35,6c-.42.46-.86,1-1.31,1.5a13.21,13.21,0,0,0-1.23,1.73,8.93,8.93,0,0,0-.87,1.89,5.46,5.46,0,0,0-.26,2,4.92,4.92,0,0,0,.26,1.1,3.19,3.19,0,0,0,.61,1.1,2.32,2.32,0,0,0,.89.69,1.32,1.32,0,0,0,1.13-.11c.59-.31.84-.71.73-1.18a4.17,4.17,0,0,0-.58-1.34,1.46,1.46,0,0,1,.08-1.38,11.45,11.45,0,0,1,.66-1.24,15.82,15.82,0,0,1,2.33-3q1.33-1.37,2.7-2.67a86.55,86.55,0,0,1,6.9-5.64q3.58-2.66,7.37-5.17,7.55-5,15.83-9.44c1-.48,2-1,3.05-1.59s2.19-1.13,3.32-1.66,2.29-1,3.47-1.39a15.15,15.15,0,0,1,3.43-.76,20.31,20.31,0,0,1-2.81,5l-3.43,4.51c-1.36,1.78-2.75,3.52-4.14,5.21s-2.82,3.42-4.25,5.17q-.63.74-1.5,1.68c-.57.62-1.12,1.29-1.65,2a22,22,0,0,0-1.39,2.12,4.81,4.81,0,0,0-.65,2.13c-.07.8.08,1.33.47,1.6a2,2,0,0,0,1.41.28,6.26,6.26,0,0,0,1.71-.47,8.17,8.17,0,0,0,1.34-.68c1.81-1.08,3.59-2.26,5.32-3.54s3.43-2.58,5.11-3.91l5-4c1.67-1.33,3.37-2.62,5.08-3.88s3.38-2.43,5.12-3.62a29.73,29.73,0,0,1,5.48-3l.65-.23a6.2,6.2,0,0,1,.76-.24,11.56,11.56,0,0,1-1.65,3c-.71,1-1.39,1.88-2,2.76-1,1.36-2,2.72-3,4.06l-3,4c-.29.35-.67.83-1.16,1.44s-1,1.3-1.55,2a24.91,24.91,0,0,0-1.51,2.36,10.44,10.44,0,0,0-1,2.39,4.9,4.9,0,0,0-.19,2.15,2.4,2.4,0,0,0,1.1,1.62,2.75,2.75,0,0,0,1.81.53,11.39,11.39,0,0,0,1.92-.27,27.29,27.29,0,0,0,4.24-1.38l4.09-1.76c1.05-.46,2.15-1,3.28-1.55s2.29-1.12,3.46-1.62a29.92,29.92,0,0,1,3.57-1.29,13,13,0,0,1,2.85-.47,3.62,3.62,0,0,0,.35,1.1,3.58,3.58,0,0,0,.92,1.1,4.7,4.7,0,0,0,1.52.87,8.35,8.35,0,0,0,1.76.39,10.18,10.18,0,0,0,1.83,0c.61,0,1.2-.09,1.75-.16a56.94,56.94,0,0,0,6.3-1q3.09-.66,6.24-1.4c.81-.17,1.6-.35,2.38-.55a16.3,16.3,0,0,1,2.29-.37l.47.09a1.73,1.73,0,0,1,.47.15.92.92,0,0,1,.37.42v.11q-1.26.57-2.52,1.2c-.84.42-1.66.86-2.47,1.31-.59.32-1.2.66-1.83,1s-1.26.76-1.89,1.18a15.83,15.83,0,0,0-1.76,1.36,8.78,8.78,0,0,0-1.38,1.57,3.42,3.42,0,0,0-.48,1.81,1.8,1.8,0,0,0,.89,1.6,2.76,2.76,0,0,0,1.89.29,8,8,0,0,0,2.13-.71,19.33,19.33,0,0,0,2.07-1.18l1.62-1.07a34.73,34.73,0,0,0,3.6-3,12.09,12.09,0,0,0,2.7-3.69l.21-.47a41.72,41.72,0,0,1,5.5-1.53,24.8,24.8,0,0,1,4.09-.43c0,.15-.08.28-.1.44a3.53,3.53,0,0,0,0,1.12,2.46,2.46,0,0,0,.37,1,2,2,0,0,0,.92.71,3.46,3.46,0,0,0,2.17-.08c.79-.26,1.48-.5,2.07-.71,1-.35,2-.68,3.07-1s1.79-.52,2.7-.77a2.33,2.33,0,0,0,.26,1.25,1.93,1.93,0,0,0,1.42,1.05,5.62,5.62,0,0,0,1.83,0,16,16,0,0,0,2.71-.79c.89-.35,1.79-.67,2.7-1a17.44,17.44,0,0,1,2.09-.47,1.85,1.85,0,0,0,1.11,2.47,4.85,4.85,0,0,0,1.68.23,8.43,8.43,0,0,0,1.78-.23,14.43,14.43,0,0,0,1.73-.53l1.57-.57c1-.35,2.12-.77,3.2-1.24a13.67,13.67,0,0,1,3.3-1,1.45,1.45,0,0,0,.84-.36,1.87,1.87,0,0,0,.53-.71,1.32,1.32,0,0,0,0-.81A1.45,1.45,0,0,0,346.38,140.93Zm-53.12,7.89c-.49.4-1,.8-1.47,1.18-.24.18-.54.39-.89.66l-1.1.84a14.16,14.16,0,0,1-1.21.81,5.07,5.07,0,0,1-1.2.52,10.94,10.94,0,0,1,3.2-3.07,37.29,37.29,0,0,1,4.09-2.28A14.78,14.78,0,0,1,293.26,148.82Zm32-5.37c-.35.1-.7.19-1.05.26a5.53,5.53,0,0,1,2.1-.63C326,143.22,325.6,143.34,325.25,143.45Z"/><path class="cls-2" d="M133.79,136.63a2.09,2.09,0,0,0,1.13-.34q.56-.34,1-.6c.6-.39,1.21-.75,1.84-1.08l1.89-1L142.5,132a1.31,1.31,0,0,0,.68-.65,1.87,1.87,0,0,0,.18-.92,1.35,1.35,0,0,0-.31-.81,1.46,1.46,0,0,0-.92-.45,1.7,1.7,0,0,0-1.21.29c-.41.26-.78.48-1.1.65l-3.72,2.1-2.83,1.58a1.5,1.5,0,0,0-.68.73,1.67,1.67,0,0,0-.16.94,1.26,1.26,0,0,0,1.36,1.16Z"/><path class="cls-2" d="M173.09,141.19a1.33,1.33,0,0,0-.65-.47,6.17,6.17,0,0,0-1.78-.18,11.29,11.29,0,0,0-2,.23c-.7.14-1.38.29-2.05.45l-1.72.39-3.62.81c-1.33.3-2.64.64-3.93,1a1.7,1.7,0,0,0-1.24-1.13,12.85,12.85,0,0,0-2.17-.42c-.81-.09-1.61-.18-2.41-.29a3.63,3.63,0,0,1-1.89-.73,1.27,1.27,0,0,0-1-.29s-.07,0-.11,0a3.53,3.53,0,0,0-1,.08c-.34.07-.67.16-1,.26s-.62.19-.87.26c-1,.25-1.94.5-2.88.76l-2.89.82-2.56.78a1.33,1.33,0,0,0,.18-.78,1.86,1.86,0,0,0-.44-.95,1.92,1.92,0,0,0-1.4-.57,7.66,7.66,0,0,0-1.54.15,17.79,17.79,0,0,0-1.79.68c-.63.29-1.26.55-1.91.82a16.37,16.37,0,0,1-1.94.65,7.08,7.08,0,0,1-1.91.26,5.94,5.94,0,0,0,.75-1.15,1.21,1.21,0,0,0-.23-1.31,1.75,1.75,0,0,0-1.52-.73s0,0-.1.05a5.89,5.89,0,0,0-1.74-.18,11.28,11.28,0,0,0-2,.23c-.7.14-1.39.29-2.05.45l-1.73.39-3.62.81c-1.33.3-2.64.64-3.93,1a1.7,1.7,0,0,0-1.23-1.13,13,13,0,0,0-2.18-.42c-.81-.09-1.61-.18-2.41-.29a3.67,3.67,0,0,1-1.89-.73,1.27,1.27,0,0,0-1-.29c-.1,0-.16.09-.26.12s-.09-.05-.15,0a28.48,28.48,0,0,0-3.65.65c-1.21.3-2.42.59-3.64.87q-2.52.57-5.06,1.1a42.64,42.64,0,0,1-5.12.73H83c-.4,0-.84,0-1.31-.05a9.22,9.22,0,0,1-1.34-.18,1.82,1.82,0,0,1-.84-.34c.43.07.91.13,1.47.18a8.87,8.87,0,0,0,1.63,0,4.94,4.94,0,0,0,1.41-.34,1.83,1.83,0,0,0,1-.89,1.6,1.6,0,0,0,.08-1.39,2,2,0,0,0-1-.87,5.13,5.13,0,0,0-1.72-.37,13.33,13.33,0,0,0-2,.06,10.22,10.22,0,0,0-1.81.34,2.76,2.76,0,0,0-.77.39,5.77,5.77,0,0,0-2.24-.21c-.84.07-1.59.11-2.26.11s-1.31,0-1.94,0-1.25,0-1.89,0c-1.81,0-3.62-.05-5.42-.05H58.54q2.67-3.15,5.09-6.34c1.6-2.14,3.3-4.25,5.08-6.35L70.18,126q.73-.84,1.47-1.62c.35-.39.71-.78,1.1-1.18a1.35,1.35,0,0,0,.31-1.45,1.56,1.56,0,0,0-.83-.94c-.26-.12-.57-.41-.82-.27a23.88,23.88,0,0,0-2.64,2.63q-2.52,2.73-4.75,5.61t-4.54,5.82l-2.38,2.91c-.79,1-1.6,1.92-2.44,2.86l-3.36,0c-1.11,0-2.23,0-3.36,0q-6.91.1-13.73.4t-13.69,1.13l-2.41.26c-1,.1-2,.25-3.18.44s-2.26.45-3.38.76a14.43,14.43,0,0,0-3,1.21,6.29,6.29,0,0,0-2.1,1.78,3.47,3.47,0,0,0-.6,2.52,4,4,0,0,0,.94,2.18,7.39,7.39,0,0,0,1.91,1.57,13.55,13.55,0,0,0,2.39,1.08c.84.27,1.61.5,2.31.68a39.38,39.38,0,0,0,6.26,1.15c2.12.21,4.24.31,6.38.31q2.67,0,5.34-.21a42.79,42.79,0,0,0,5.3-.75,35.55,35.55,0,0,0,5.14-1.5,27.94,27.94,0,0,0,4.82-2.36,39.54,39.54,0,0,0,4.15-2.94,49.56,49.56,0,0,0,3.78-3.4c.38-.39.69-.72.94-1a1.59,1.59,0,0,1,1.26-.42H65l9,.1a7.41,7.41,0,0,1,1,.08,10.43,10.43,0,0,0,1.15.11l.4,0a3.34,3.34,0,0,0,.34,1,3.42,3.42,0,0,0,.91,1.1,4.81,4.81,0,0,0,1.52.87A8.49,8.49,0,0,0,81,147a10.27,10.27,0,0,0,1.84,0c.61,0,1.19-.09,1.75-.16a56.76,56.76,0,0,0,6.29-1q3.1-.66,6.24-1.4c.81-.17,1.6-.35,2.39-.55a18.33,18.33,0,0,1,2.2-.36,2.65,2.65,0,0,0,.39.26,9.55,9.55,0,0,0,1.42.37q.73.12,1.47.21c.49.05.93.11,1.31.18a4.4,4.4,0,0,0-1,.44,3.7,3.7,0,0,0-.82.69,1.7,1.7,0,0,0-.42.86,1.6,1.6,0,0,0,.19,1,1.18,1.18,0,0,0,1,.65,4,4,0,0,0,1.44-.23,11.66,11.66,0,0,0,1.52-.66,9.4,9.4,0,0,1,1.23-.55q3.3-1.1,6.74-1.89a68.2,68.2,0,0,1,6.9-1.2h.28a2.72,2.72,0,0,0-.23,1.24,1.65,1.65,0,0,0,.52,1.05,2.78,2.78,0,0,0,1.52.6,7.92,7.92,0,0,0,3.49-.26c1.21-.35,2.4-.75,3.59-1.21a1.77,1.77,0,0,0,.63,1.32,1.9,1.9,0,0,0,1.47.57,13.77,13.77,0,0,0,3.54-.47c1.17-.32,2.34-.67,3.49-1.07s2.31-.79,3.49-1.16a16.87,16.87,0,0,1,3.53-.71c.06,0,.09,0,.14,0a2.75,2.75,0,0,0,.44.28,9.55,9.55,0,0,0,1.42.37c.49.08,1,.15,1.46.21s.93.11,1.32.18a4.68,4.68,0,0,0-1,.44,3.65,3.65,0,0,0-.81.69,1.7,1.7,0,0,0-.42.86,1.67,1.67,0,0,0,.18,1,1.18,1.18,0,0,0,1.05.65,4,4,0,0,0,1.44-.23,11.1,11.1,0,0,0,1.52-.66,10,10,0,0,1,1.24-.55q3.3-1.1,6.73-1.89a68.2,68.2,0,0,1,6.9-1.2,6.06,6.06,0,0,1,1.44-.05,1.89,1.89,0,0,0,1.34-.37,1.42,1.42,0,0,0,.5-.63,1.5,1.5,0,0,0,0-.76A1.7,1.7,0,0,0,173.09,141.19Zm-122.47,3.2a23.79,23.79,0,0,1-2.33,2.12,31.28,31.28,0,0,1-3.38,2.39,18.61,18.61,0,0,1-4.36,1.94,47.06,47.06,0,0,1-11.17,2c-1.5.07-3.09.12-4.77.13a44.46,44.46,0,0,1-5-.23,36.28,36.28,0,0,1-4.93-.87,15.69,15.69,0,0,1-4.41-1.81c-.87-.49-1.34-1-1.39-1.44s.34-.9,1.18-1.28a17.64,17.64,0,0,1,5.32-1.71c1.91-.29,3.77-.55,5.59-.76q7.71-.95,15.39-1.2t15.44-.37A8.22,8.22,0,0,0,50.62,144.39Z"/><path class="cls-3" d="M155.82,23.08H143.19V70.62a9.06,9.06,0,0,1-9,9h19.39a9,9,0,0,0,9-9V29.84A6.75,6.75,0,0,0,155.82,23.08Z"/><path class="cls-3" d="M187.55,79.65H174.92V32.11a9,9,0,0,0-9-9h19.39a9,9,0,0,1,9,9V72.89A6.76,6.76,0,0,1,187.55,79.65Z"/><path class="cls-3" d="M219.32,79.65H206.68V32.11a9,9,0,0,0-9-9H217a9,9,0,0,1,9,9V72.89A6.75,6.75,0,0,1,219.32,79.65Z"/><path class="cls-3" d="M130.84,59.28l-.47,0a7.42,7.42,0,0,0,0,14.84,7,7,0,0,0,1.13-.1,7.41,7.41,0,0,0-.66-14.72Z"/></svg>